<?xml version="1.0" standalone="no"?>
<!DOCTYPE svg PUBLIC "-//W3C//DTD SVG 20010904//EN"
 "http://www.w3.org/TR/2001/REC-SVG-20010904/DTD/svg10.dtd">
<svg version="1.0" xmlns="http://www.w3.org/2000/svg"
 width="500.000000pt" height="500.000000pt" viewBox="0 0 500.000000 500.000000"
 preserveAspectRatio="xMidYMid meet">
<metadata>
Created by potrace 1.16, written by Peter Selinger 2001-2019
</metadata>
<g transform="translate(0.000000,500.000000) scale(0.100000,-0.100000)"
fill="#000000" stroke="none">
<path d="M2347 4970 c-399 -36 -725 -133 -1052 -313 -197 -108 -358 -230 -538
-406 -249 -244 -435 -523 -561 -841 -46 -117 -117 -348 -115 -378 0 -9 11 23
25 71 121 443 336 812 659 1131 292 289 671 513 1059 626 57 16 110 30 117 29
8 0 -26 -13 -76 -28 -150 -46 -283 -100 -416 -167 -130 -66 -336 -197 -399
-254 -20 -18 -10 -13 26 13 228 170 557 332 822 407 45 13 78 27 72 30 -12 7
66 24 210 45 152 23 474 31 623 15 336 -34 632 -119 937 -269 175 -85 183 -89
155 -66 -32 27 -291 150 -396 189 -200 73 -403 124 -604 151 -147 19 -416 27
-548 15z"/>
<path d="M2275 4715 c-280 -38 -520 -111 -761 -230 -580 -288 -1010 -817
-1168 -1435 -48 -188 -66 -346 -66 -570 0 -218 11 -347 45 -515 13 -65 22
-121 21 -123 -6 -5 -53 200 -73 313 -13 77 -17 158 -17 350 -1 218 2 267 23
380 89 500 322 935 686 1283 187 179 369 302 636 430 79 38 155 78 169 90 l25
21 -38 1 c-117 1 -418 -151 -660 -333 -276 -208 -528 -511 -684 -822 -97 -192
-179 -449 -220 -680 -25 -142 -25 -587 0 -729 17 -95 18 -142 2 -74 -6 26 -9
29 -12 13 -12 -46 48 -288 113 -463 28 -74 33 -97 23 -106 -9 -8 -10 -8 -5 2
4 7 4 22 1 33 -6 17 -9 19 -17 8 -6 -10 -7 -7 -3 10 5 15 3 21 -3 17 -6 -4 -8
3 -5 16 4 19 3 20 -7 8 -9 -12 -10 -11 -5 9 5 15 3 21 -3 17 -6 -4 -8 3 -5 16
4 19 3 20 -6 8 -9 -12 -10 -9 -5 15 4 24 3 27 -6 15 -10 -13 -11 -12 -6 3 3
10 -8 64 -24 120 -68 228 -107 548 -95 777 12 239 71 547 135 709 21 55 27 86
10 61 -16 -24 -76 -217 -99 -315 -39 -168 -52 -280 -58 -471 -8 -281 23 -530
97 -765 16 -51 27 -95 25 -97 -5 -5 -49 134 -74 235 -100 400 -95 841 15 1220
50 174 132 369 219 523 20 36 32 61 27 55 -6 -5 -36 -55 -67 -110 -191 -336
-286 -695 -286 -1080 -1 -287 37 -506 138 -810 53 -157 220 -502 242 -497 7 1
10 -2 6 -8 -6 -10 70 -140 82 -140 5 0 -2 12 -37 65 -34 51 -46 73 -33 60 15
-15 103 -145 103 -152 0 -3 -8 1 -17 8 -9 8 -2 -7 16 -33 17 -27 34 -48 37
-48 3 0 -4 14 -16 31 -42 57 -13 39 36 -23 73 -94 278 -301 374 -378 685 -546
1624 -699 2419 -395 103 39 281 121 281 129 0 4 -23 -5 -51 -20 -174 -87 -410
-158 -659 -195 -134 -21 -192 -24 -430 -23 -212 0 -297 4 -370 17 -115 20
-283 58 -278 63 2 1 57 -8 121 -21 65 -13 162 -29 215 -35 137 -17 424 -14
567 5 686 91 1290 484 1642 1070 63 104 125 224 137 263 15 47 -13 19 -49 -50
-74 -143 -217 -339 -357 -492 -255 -278 -656 -535 -933 -600 -130 -30 -265
-53 -355 -61 -57 -5 -51 -2 46 19 423 91 781 282 1061 567 157 160 268 314
366 507 77 149 120 262 101 262 -2 0 -27 -46 -55 -101 -219 -438 -550 -766
-981 -974 -327 -158 -648 -225 -1013 -212 -540 19 -1030 229 -1419 606 -189
185 -308 350 -422 586 -74 153 -114 265 -155 430 -17 66 -36 129 -43 140 -18
28 -35 154 -46 340 -11 181 0 283 49 479 27 106 81 270 87 264 1 -2 -8 -41
-22 -86 -122 -424 -107 -899 43 -1302 247 -666 795 -1143 1476 -1286 95 -19
160 -26 292 -29 166 -4 167 -3 50 5 -354 26 -642 114 -915 278 -566 341 -925
935 -969 1603 -22 335 37 601 214 964 148 304 313 513 598 758 73 63 88 92 31
58 -53 -32 -30 -6 34 38 74 50 255 140 383 191 55 22 112 49 127 60 32 23 210
73 333 94 457 78 920 11 1334 -194 526 -260 915 -704 1121 -1277 26 -73 52
-133 57 -133 18 0 0 124 -33 220 -38 112 -106 261 -173 380 -157 280 -463 590
-758 768 -681 408 -1478 441 -2174 89 -341 -173 -629 -432 -908 -817 -32 -44
25 52 75 127 118 176 336 402 522 540 780 580 1900 598 2715 45 550 -373 911
-932 1021 -1582 l18 -105 1 92 c1 77 -6 119 -38 245 -21 84 -56 196 -76 248
-309 787 -1020 1357 -1886 1510 -159 28 -538 37 -694 15z m-629 -4303 c137
-55 269 -96 404 -126 197 -43 280 -51 545 -51 158 0 230 -3 195 -8 -90 -12
-428 -11 -530 2 -255 33 -512 111 -735 221 -77 38 -149 76 -160 85 -11 8 25
-7 81 -34 56 -28 146 -68 200 -89z"/>
<path d="M1019 3638 c9 -24 1227 -2927 1263 -3010 l20 -48 277 0 277 0 639
1523 c351 837 640 1530 643 1540 4 16 -19 17 -387 17 l-392 0 -15 -37 c-9 -20
-182 -471 -386 -1002 -203 -531 -373 -969 -376 -973 -4 -4 -181 446 -393 1000
l-386 1007 -396 3 -397 2 9 -22z"/>
<path d="M493 2703 c-4 -16 -8 -125 -8 -243 0 -241 11 -327 72 -538 93 -330
265 -611 513 -837 82 -74 179 -149 186 -143 2 3 -17 20 -44 39 -198 142 -382
361 -505 601 -57 112 -127 297 -152 406 -47 201 -49 221 -50 485 0 141 -1 257
-2 257 -2 0 -6 -12 -10 -27z"/>
</g>
</svg>
